<svg fill="none" viewBox="0 0 39 39">
  <symbol id="floppy">
    <g fill="currentColor">
      <path d="M0 0h3.00001v3H0zm0 3h3.00001v3H0zm0 3h3.00001v3H0zm0 3h3.00001v3H0zm0 3h3.00001v3H0zm0 3h3.00001v3H0zm0 3h3.00001v3H0zm0 3h3.00001v3H0zm0 3h3.00001v3H0zm0 3h3.00001v3H0zm0 3h3.00001v3H0zm0 3h3.00001v3H0zm0 3h3.00001v3H0zM33 0v3h-3.00001V0z"/>
      <path d="M30.0032 0v3h-3.00001V0zm-3.0034 0v3h-3.00001V0z"/>
      <path d="M23.9998 0v3h-3.00001V0zM20.999 0v3h-3.00001V0z"/>
      <path d="M17.9998 0v3h-3.00001V0zM14.999 0v3h-3.00001V0z"/>
      <path d="M12 0v3H8.99999V0zM8.99609 0v3H5.99608V0z"/>
      <path d="M6 0v3H2.99999V0zm30.0007 3v3h-3.00001V3zM8.99609 6v3H5.99608V6zm0-3v3H5.99608V3zm0 6v3H5.99608V9zM30.0032 6v3h-3.00001V6zm0-3v3h-3.00001V3zm0 6v3h-3.00001V9zm-6.0034-3v3h-3.00001V6zm0-3v3h-3.00001V3zm0 6v3h-3.00001V9zm6.0034 3v3h-3.00001v-3zm-3.0034 0v3h-3.00001v-3z"/>
      <path d="M23.9998 12v3h-3.00001v-3zm-3.0008 0v3h-3.00001v-3z"/>
      <path d="M17.9998 12v3h-3.00001v-3zm-3.0008 0v3h-3.00001v-3z"/>
      <path d="M12 12v3H8.99999v-3zm-3.00391 0v3H5.99608v-3zM33 21v3h-3.00001v-3z"/>
      <path d="M30.0032 21v3h-3.00001v-3zm-3.0034 0v3h-3.00001v-3z"/>
      <path d="M23.9998 21v3h-3.00001v-3zm-3.0008 0v3h-3.00001v-3z"/>
      <path d="M17.9998 21v3h-3.00001v-3zm-3.0008 0v3h-3.00001v-3z"/>
      <path d="M12 21v3H8.99999v-3zm-3.00391 0v3H5.99608v-3zM33 24v3h-3.00001v-3zM8.99609 24v3H5.99608v-3zM33 27v3h-3.00001v-3zM8.99609 27v3H5.99608v-3zM33 30v3h-3.00001v-3zM8.99609 30v3H5.99608v-3zm0 3v3H5.99608v-3zM33 33v3h-3.00001v-3zm3.0007 3v3h-3.00001v-3zM33 36v3h-3.00001v-3z"/>
      <path d="M30.0032 36v3h-3.00001v-3zm-3.0034 0v3h-3.00001v-3z"/>
      <path d="M23.9998 36v3h-3.00001v-3zm-3.0008 0v3h-3.00001v-3z"/>
      <path d="M17.9998 36v3h-3.00001v-3zm-3.0008 0v3h-3.00001v-3z"/>
      <path d="M12 36v3H8.99999v-3zm-3.00391 0v3H5.99608v-3z"/>
      <path d="M6 36v3H2.99999v-3zm33 3h-3.00001v-3H39zm0-3h-3.00001v-3H39zm0-3h-3.00001v-3H39zm0-3h-3.00001v-3H39zm0-3h-3.00001v-3H39zm0-3h-3.00001v-3H39zm0-3h-3.00001v-3H39zm0-3h-3.00001v-3H39zm0-3h-3.00001v-3H39zm0-3h-3.00001V9H39zm0-3h-3.00001V6H39z"/>
    </g>
  </symbol>
</svg>
